<svg width="56px" height="56px" viewBox="0 0 56 56" version="1.1" xmlns="http://www.w3.org/2000/svg" xmlns:xlink="http://www.w3.org/1999/xlink">
    <g id="Group-14" fill="#5DE3B6" fill-rule="nonzero">
        <path d="M28,55.5 C12.8121694,55.5 0.5,43.1878306 0.5,28 C0.5,12.8121694 12.8121694,0.5 28,0.5 C43.1878306,0.5 55.5,12.8121694 55.5,28 C55.5,43.1878306 43.1878306,55.5 28,55.5 Z M28,50.5 C40.4264069,50.5 50.5,40.4264069 50.5,28 C50.5,15.5735931 40.4264069,5.5 28,5.5 C15.5735931,5.5 5.5,15.5735931 5.5,28 C5.5,40.4264069 15.5735931,50.5 28,50.5 Z" id="Oval"></path>
        <path d="M28,37 C23.0294373,37 19,32.9705627 19,28 C19,23.0294373 23.0294373,19 28,19 C32.9705627,19 37,23.0294373 37,28 C37,32.9705627 32.9705627,37 28,37 Z M28,32 C30.209139,32 32,30.209139 32,28 C32,25.790861 30.209139,24 28,24 C25.790861,24 24,25.790861 24,28 C24,30.209139 25.790861,32 28,32 Z" id="Oval"></path>
    </g>
</svg>